<mxfile host="app.diagrams.net" agent="Mozilla/5.0 (Windows NT 10.0; Win64; x64) AppleWebKit/537.36 (KHTML, like Gecko) Chrome/128.0.0.0 Safari/537.36" version="24.7.7">
  <diagram name="PÃ¡gina-1" id="Qydr5WdY5x1J5dK9KI8K">
    <mxGraphModel dx="2085" dy="1714" grid="1" gridSize="10" guides="1" tooltips="1" connect="1" arrows="1" fold="1" page="1" pageScale="1" pageWidth="850" pageHeight="1100" math="0" shadow="0">
      <root>
        <mxCell id="0" />
        <mxCell id="1" parent="0" />
        <mxCell id="ak59orL22LrmrVHkWrPu-68" style="edgeStyle=orthogonalEdgeStyle;rounded=0;orthogonalLoop=1;jettySize=auto;html=1;entryX=1;entryY=0.5;entryDx=0;entryDy=0;" edge="1" parent="1" source="ak59orL22LrmrVHkWrPu-1" target="ak59orL22LrmrVHkWrPu-19">
          <mxGeometry relative="1" as="geometry" />
        </mxCell>
        <mxCell id="ak59orL22LrmrVHkWrPu-1" value="Estudiante" style="swimlane;fontStyle=0;childLayout=stackLayout;horizontal=1;startSize=30;horizontalStack=0;resizeParent=1;resizeParentMax=0;resizeLast=0;collapsible=1;marginBottom=0;whiteSpace=wrap;html=1;" vertex="1" parent="1">
          <mxGeometry x="340" y="290" width="140" height="120" as="geometry" />
        </mxCell>
        <mxCell id="ak59orL22LrmrVHkWrPu-3" value="Id*" style="text;strokeColor=none;fillColor=none;align=left;verticalAlign=middle;spacingLeft=4;spacingRight=4;overflow=hidden;points=[[0,0.5],[1,0.5]];portConstraint=eastwest;rotatable=0;whiteSpace=wrap;html=1;" vertex="1" parent="ak59orL22LrmrVHkWrPu-1">
          <mxGeometry y="30" width="140" height="30" as="geometry" />
        </mxCell>
        <mxCell id="ak59orL22LrmrVHkWrPu-2" value="Nombre" style="text;strokeColor=none;fillColor=none;align=left;verticalAlign=middle;spacingLeft=4;spacingRight=4;overflow=hidden;points=[[0,0.5],[1,0.5]];portConstraint=eastwest;rotatable=0;whiteSpace=wrap;html=1;" vertex="1" parent="ak59orL22LrmrVHkWrPu-1">
          <mxGeometry y="60" width="140" height="30" as="geometry" />
        </mxCell>
        <mxCell id="ak59orL22LrmrVHkWrPu-4" value="Num Celular" style="text;strokeColor=none;fillColor=none;align=left;verticalAlign=middle;spacingLeft=4;spacingRight=4;overflow=hidden;points=[[0,0.5],[1,0.5]];portConstraint=eastwest;rotatable=0;whiteSpace=wrap;html=1;" vertex="1" parent="ak59orL22LrmrVHkWrPu-1">
          <mxGeometry y="90" width="140" height="30" as="geometry" />
        </mxCell>
        <mxCell id="ak59orL22LrmrVHkWrPu-66" style="edgeStyle=orthogonalEdgeStyle;rounded=0;orthogonalLoop=1;jettySize=auto;html=1;entryX=1;entryY=0.5;entryDx=0;entryDy=0;" edge="1" parent="1" source="ak59orL22LrmrVHkWrPu-5" target="ak59orL22LrmrVHkWrPu-3">
          <mxGeometry relative="1" as="geometry" />
        </mxCell>
        <mxCell id="ak59orL22LrmrVHkWrPu-5" value="Curso" style="swimlane;fontStyle=0;childLayout=stackLayout;horizontal=1;startSize=30;horizontalStack=0;resizeParent=1;resizeParentMax=0;resizeLast=0;collapsible=1;marginBottom=0;whiteSpace=wrap;html=1;" vertex="1" parent="1">
          <mxGeometry x="640" y="90" width="140" height="120" as="geometry" />
        </mxCell>
        <mxCell id="ak59orL22LrmrVHkWrPu-6" value="Nombre" style="text;strokeColor=none;fillColor=none;align=left;verticalAlign=middle;spacingLeft=4;spacingRight=4;overflow=hidden;points=[[0,0.5],[1,0.5]];portConstraint=eastwest;rotatable=0;whiteSpace=wrap;html=1;" vertex="1" parent="ak59orL22LrmrVHkWrPu-5">
          <mxGeometry y="30" width="140" height="30" as="geometry" />
        </mxCell>
        <mxCell id="ak59orL22LrmrVHkWrPu-7" value="Id del curso*" style="text;strokeColor=none;fillColor=none;align=left;verticalAlign=middle;spacingLeft=4;spacingRight=4;overflow=hidden;points=[[0,0.5],[1,0.5]];portConstraint=eastwest;rotatable=0;whiteSpace=wrap;html=1;" vertex="1" parent="ak59orL22LrmrVHkWrPu-5">
          <mxGeometry y="60" width="140" height="30" as="geometry" />
        </mxCell>
        <mxCell id="ak59orL22LrmrVHkWrPu-8" value="Estudiantes" style="text;strokeColor=none;fillColor=none;align=left;verticalAlign=middle;spacingLeft=4;spacingRight=4;overflow=hidden;points=[[0,0.5],[1,0.5]];portConstraint=eastwest;rotatable=0;whiteSpace=wrap;html=1;" vertex="1" parent="ak59orL22LrmrVHkWrPu-5">
          <mxGeometry y="90" width="140" height="30" as="geometry" />
        </mxCell>
        <mxCell id="ak59orL22LrmrVHkWrPu-67" style="edgeStyle=orthogonalEdgeStyle;rounded=0;orthogonalLoop=1;jettySize=auto;html=1;" edge="1" parent="1" source="ak59orL22LrmrVHkWrPu-9" target="ak59orL22LrmrVHkWrPu-20">
          <mxGeometry relative="1" as="geometry" />
        </mxCell>
        <mxCell id="ak59orL22LrmrVHkWrPu-9" value="Asignaturas" style="swimlane;fontStyle=0;childLayout=stackLayout;horizontal=1;startSize=30;horizontalStack=0;resizeParent=1;resizeParentMax=0;resizeLast=0;collapsible=1;marginBottom=0;whiteSpace=wrap;html=1;" vertex="1" parent="1">
          <mxGeometry x="40" y="90" width="140" height="120" as="geometry" />
        </mxCell>
        <mxCell id="ak59orL22LrmrVHkWrPu-10" value="Tipo&amp;nbsp;" style="text;strokeColor=none;fillColor=none;align=left;verticalAlign=middle;spacingLeft=4;spacingRight=4;overflow=hidden;points=[[0,0.5],[1,0.5]];portConstraint=eastwest;rotatable=0;whiteSpace=wrap;html=1;" vertex="1" parent="ak59orL22LrmrVHkWrPu-9">
          <mxGeometry y="30" width="140" height="30" as="geometry" />
        </mxCell>
        <mxCell id="ak59orL22LrmrVHkWrPu-11" value="Docente" style="text;strokeColor=none;fillColor=none;align=left;verticalAlign=middle;spacingLeft=4;spacingRight=4;overflow=hidden;points=[[0,0.5],[1,0.5]];portConstraint=eastwest;rotatable=0;whiteSpace=wrap;html=1;" vertex="1" parent="ak59orL22LrmrVHkWrPu-9">
          <mxGeometry y="60" width="140" height="30" as="geometry" />
        </mxCell>
        <mxCell id="ak59orL22LrmrVHkWrPu-12" value="Id de la asignatura*" style="text;strokeColor=none;fillColor=none;align=left;verticalAlign=middle;spacingLeft=4;spacingRight=4;overflow=hidden;points=[[0,0.5],[1,0.5]];portConstraint=eastwest;rotatable=0;whiteSpace=wrap;html=1;" vertex="1" parent="ak59orL22LrmrVHkWrPu-9">
          <mxGeometry y="90" width="140" height="30" as="geometry" />
        </mxCell>
        <mxCell id="ak59orL22LrmrVHkWrPu-13" value="Profesor" style="swimlane;fontStyle=0;childLayout=stackLayout;horizontal=1;startSize=30;horizontalStack=0;resizeParent=1;resizeParentMax=0;resizeLast=0;collapsible=1;marginBottom=0;whiteSpace=wrap;html=1;" vertex="1" parent="1">
          <mxGeometry x="40" y="300" width="140" height="120" as="geometry" />
        </mxCell>
        <mxCell id="ak59orL22LrmrVHkWrPu-14" value="Nombre" style="text;strokeColor=none;fillColor=none;align=left;verticalAlign=middle;spacingLeft=4;spacingRight=4;overflow=hidden;points=[[0,0.5],[1,0.5]];portConstraint=eastwest;rotatable=0;whiteSpace=wrap;html=1;" vertex="1" parent="ak59orL22LrmrVHkWrPu-13">
          <mxGeometry y="30" width="140" height="30" as="geometry" />
        </mxCell>
        <mxCell id="ak59orL22LrmrVHkWrPu-15" value="Id*" style="text;strokeColor=none;fillColor=none;align=left;verticalAlign=middle;spacingLeft=4;spacingRight=4;overflow=hidden;points=[[0,0.5],[1,0.5]];portConstraint=eastwest;rotatable=0;whiteSpace=wrap;html=1;" vertex="1" parent="ak59orL22LrmrVHkWrPu-13">
          <mxGeometry y="60" width="140" height="30" as="geometry" />
        </mxCell>
        <mxCell id="ak59orL22LrmrVHkWrPu-16" value="Materia" style="text;strokeColor=none;fillColor=none;align=left;verticalAlign=middle;spacingLeft=4;spacingRight=4;overflow=hidden;points=[[0,0.5],[1,0.5]];portConstraint=eastwest;rotatable=0;whiteSpace=wrap;html=1;" vertex="1" parent="ak59orL22LrmrVHkWrPu-13">
          <mxGeometry y="90" width="140" height="30" as="geometry" />
        </mxCell>
        <mxCell id="ak59orL22LrmrVHkWrPu-17" value="Evaluaciones" style="swimlane;fontStyle=0;childLayout=stackLayout;horizontal=1;startSize=30;horizontalStack=0;resizeParent=1;resizeParentMax=0;resizeLast=0;collapsible=1;marginBottom=0;whiteSpace=wrap;html=1;" vertex="1" parent="1">
          <mxGeometry x="240" y="-130" width="140" height="180" as="geometry" />
        </mxCell>
        <mxCell id="ak59orL22LrmrVHkWrPu-18" value="Notas" style="text;strokeColor=none;fillColor=none;align=left;verticalAlign=middle;spacingLeft=4;spacingRight=4;overflow=hidden;points=[[0,0.5],[1,0.5]];portConstraint=eastwest;rotatable=0;whiteSpace=wrap;html=1;" vertex="1" parent="ak59orL22LrmrVHkWrPu-17">
          <mxGeometry y="30" width="140" height="30" as="geometry" />
        </mxCell>
        <mxCell id="ak59orL22LrmrVHkWrPu-19" value="Estudiantes" style="text;strokeColor=none;fillColor=none;align=left;verticalAlign=middle;spacingLeft=4;spacingRight=4;overflow=hidden;points=[[0,0.5],[1,0.5]];portConstraint=eastwest;rotatable=0;whiteSpace=wrap;html=1;" vertex="1" parent="ak59orL22LrmrVHkWrPu-17">
          <mxGeometry y="60" width="140" height="30" as="geometry" />
        </mxCell>
        <mxCell id="ak59orL22LrmrVHkWrPu-20" value="Asignatura" style="text;strokeColor=none;fillColor=none;align=left;verticalAlign=middle;spacingLeft=4;spacingRight=4;overflow=hidden;points=[[0,0.5],[1,0.5]];portConstraint=eastwest;rotatable=0;whiteSpace=wrap;html=1;" vertex="1" parent="ak59orL22LrmrVHkWrPu-17">
          <mxGeometry y="90" width="140" height="30" as="geometry" />
        </mxCell>
        <mxCell id="ak59orL22LrmrVHkWrPu-64" value="Tipo de evaluacion" style="text;strokeColor=none;fillColor=none;align=left;verticalAlign=middle;spacingLeft=4;spacingRight=4;overflow=hidden;points=[[0,0.5],[1,0.5]];portConstraint=eastwest;rotatable=0;whiteSpace=wrap;html=1;" vertex="1" parent="ak59orL22LrmrVHkWrPu-17">
          <mxGeometry y="120" width="140" height="30" as="geometry" />
        </mxCell>
        <mxCell id="ak59orL22LrmrVHkWrPu-63" value="Id de la evaluacion*" style="text;strokeColor=none;fillColor=none;align=left;verticalAlign=middle;spacingLeft=4;spacingRight=4;overflow=hidden;points=[[0,0.5],[1,0.5]];portConstraint=eastwest;rotatable=0;whiteSpace=wrap;html=1;" vertex="1" parent="ak59orL22LrmrVHkWrPu-17">
          <mxGeometry y="150" width="140" height="30" as="geometry" />
        </mxCell>
        <mxCell id="ak59orL22LrmrVHkWrPu-31" style="edgeStyle=orthogonalEdgeStyle;rounded=0;orthogonalLoop=1;jettySize=auto;html=1;entryX=0;entryY=0.5;entryDx=0;entryDy=0;" edge="1" parent="1" source="ak59orL22LrmrVHkWrPu-24" target="ak59orL22LrmrVHkWrPu-29">
          <mxGeometry relative="1" as="geometry" />
        </mxCell>
        <mxCell id="ak59orL22LrmrVHkWrPu-44" style="edgeStyle=orthogonalEdgeStyle;rounded=0;orthogonalLoop=1;jettySize=auto;html=1;" edge="1" parent="1" source="ak59orL22LrmrVHkWrPu-24" target="ak59orL22LrmrVHkWrPu-45">
          <mxGeometry relative="1" as="geometry">
            <mxPoint x="20" y="700" as="targetPoint" />
          </mxGeometry>
        </mxCell>
        <mxCell id="ak59orL22LrmrVHkWrPu-24" value="Profesor" style="rounded=0;whiteSpace=wrap;html=1;" vertex="1" parent="1">
          <mxGeometry x="50" y="940" width="120" height="60" as="geometry" />
        </mxCell>
        <mxCell id="ak59orL22LrmrVHkWrPu-34" style="edgeStyle=orthogonalEdgeStyle;rounded=0;orthogonalLoop=1;jettySize=auto;html=1;entryX=0.5;entryY=0;entryDx=0;entryDy=0;" edge="1" parent="1" source="ak59orL22LrmrVHkWrPu-25" target="ak59orL22LrmrVHkWrPu-33">
          <mxGeometry relative="1" as="geometry" />
        </mxCell>
        <mxCell id="ak59orL22LrmrVHkWrPu-40" style="edgeStyle=orthogonalEdgeStyle;rounded=0;orthogonalLoop=1;jettySize=auto;html=1;entryX=1;entryY=0.5;entryDx=0;entryDy=0;" edge="1" parent="1" source="ak59orL22LrmrVHkWrPu-25" target="ak59orL22LrmrVHkWrPu-39">
          <mxGeometry relative="1" as="geometry">
            <mxPoint x="680" y="700" as="targetPoint" />
          </mxGeometry>
        </mxCell>
        <mxCell id="ak59orL22LrmrVHkWrPu-52" style="edgeStyle=orthogonalEdgeStyle;rounded=0;orthogonalLoop=1;jettySize=auto;html=1;" edge="1" parent="1" source="ak59orL22LrmrVHkWrPu-25" target="ak59orL22LrmrVHkWrPu-53">
          <mxGeometry relative="1" as="geometry">
            <mxPoint x="770" y="590" as="targetPoint" />
            <Array as="points">
              <mxPoint x="770" y="830" />
            </Array>
          </mxGeometry>
        </mxCell>
        <mxCell id="ak59orL22LrmrVHkWrPu-25" value="Estudiantes" style="rounded=0;whiteSpace=wrap;html=1;" vertex="1" parent="1">
          <mxGeometry x="620" y="800" width="120" height="60" as="geometry" />
        </mxCell>
        <mxCell id="ak59orL22LrmrVHkWrPu-41" style="edgeStyle=orthogonalEdgeStyle;rounded=0;orthogonalLoop=1;jettySize=auto;html=1;entryX=0;entryY=0.5;entryDx=0;entryDy=0;" edge="1" parent="1" source="ak59orL22LrmrVHkWrPu-26" target="ak59orL22LrmrVHkWrPu-39">
          <mxGeometry relative="1" as="geometry" />
        </mxCell>
        <mxCell id="ak59orL22LrmrVHkWrPu-49" style="edgeStyle=orthogonalEdgeStyle;rounded=0;orthogonalLoop=1;jettySize=auto;html=1;entryX=0.5;entryY=1;entryDx=0;entryDy=0;" edge="1" parent="1" source="ak59orL22LrmrVHkWrPu-26" target="ak59orL22LrmrVHkWrPu-47">
          <mxGeometry relative="1" as="geometry" />
        </mxCell>
        <mxCell id="ak59orL22LrmrVHkWrPu-26" value="Curso" style="rounded=0;whiteSpace=wrap;html=1;" vertex="1" parent="1">
          <mxGeometry x="250" y="680" width="120" height="60" as="geometry" />
        </mxCell>
        <mxCell id="ak59orL22LrmrVHkWrPu-28" value="Asignaturas" style="rounded=0;whiteSpace=wrap;html=1;" vertex="1" parent="1">
          <mxGeometry x="390" y="940" width="120" height="60" as="geometry" />
        </mxCell>
        <mxCell id="ak59orL22LrmrVHkWrPu-32" style="edgeStyle=orthogonalEdgeStyle;rounded=0;orthogonalLoop=1;jettySize=auto;html=1;entryX=0;entryY=0.5;entryDx=0;entryDy=0;" edge="1" parent="1" source="ak59orL22LrmrVHkWrPu-29" target="ak59orL22LrmrVHkWrPu-28">
          <mxGeometry relative="1" as="geometry" />
        </mxCell>
        <mxCell id="ak59orL22LrmrVHkWrPu-29" value="EnseÃ±a" style="rhombus;whiteSpace=wrap;html=1;" vertex="1" parent="1">
          <mxGeometry x="230" y="930" width="80" height="80" as="geometry" />
        </mxCell>
        <mxCell id="ak59orL22LrmrVHkWrPu-35" style="edgeStyle=orthogonalEdgeStyle;rounded=0;orthogonalLoop=1;jettySize=auto;html=1;entryX=1;entryY=0.5;entryDx=0;entryDy=0;" edge="1" parent="1" source="ak59orL22LrmrVHkWrPu-33" target="ak59orL22LrmrVHkWrPu-28">
          <mxGeometry relative="1" as="geometry" />
        </mxCell>
        <mxCell id="ak59orL22LrmrVHkWrPu-33" value="Pasan" style="rhombus;whiteSpace=wrap;html=1;" vertex="1" parent="1">
          <mxGeometry x="640" y="910" width="80" height="80" as="geometry" />
        </mxCell>
        <mxCell id="ak59orL22LrmrVHkWrPu-39" value="Pertenece" style="rhombus;whiteSpace=wrap;html=1;" vertex="1" parent="1">
          <mxGeometry x="550" y="670" width="80" height="80" as="geometry" />
        </mxCell>
        <mxCell id="ak59orL22LrmrVHkWrPu-46" style="edgeStyle=orthogonalEdgeStyle;rounded=0;orthogonalLoop=1;jettySize=auto;html=1;entryX=0;entryY=0.5;entryDx=0;entryDy=0;" edge="1" parent="1" source="ak59orL22LrmrVHkWrPu-45" target="ak59orL22LrmrVHkWrPu-26">
          <mxGeometry relative="1" as="geometry" />
        </mxCell>
        <mxCell id="ak59orL22LrmrVHkWrPu-45" value="EnseÃ±a" style="rhombus;whiteSpace=wrap;html=1;" vertex="1" parent="1">
          <mxGeometry x="-20" y="660" width="80" height="80" as="geometry" />
        </mxCell>
        <mxCell id="ak59orL22LrmrVHkWrPu-47" value="Toma" style="rhombus;whiteSpace=wrap;html=1;" vertex="1" parent="1">
          <mxGeometry x="270" y="550" width="80" height="80" as="geometry" />
        </mxCell>
        <mxCell id="ak59orL22LrmrVHkWrPu-51" style="edgeStyle=orthogonalEdgeStyle;rounded=0;orthogonalLoop=1;jettySize=auto;html=1;" edge="1" parent="1" source="ak59orL22LrmrVHkWrPu-48" target="ak59orL22LrmrVHkWrPu-53">
          <mxGeometry relative="1" as="geometry">
            <mxPoint x="660" y="580" as="targetPoint" />
          </mxGeometry>
        </mxCell>
        <mxCell id="ak59orL22LrmrVHkWrPu-48" value="Asistencia" style="rounded=0;whiteSpace=wrap;html=1;" vertex="1" parent="1">
          <mxGeometry x="400" y="550" width="120" height="60" as="geometry" />
        </mxCell>
        <mxCell id="ak59orL22LrmrVHkWrPu-50" style="edgeStyle=orthogonalEdgeStyle;rounded=0;orthogonalLoop=1;jettySize=auto;html=1;entryX=-0.013;entryY=0.627;entryDx=0;entryDy=0;entryPerimeter=0;" edge="1" parent="1" source="ak59orL22LrmrVHkWrPu-47" target="ak59orL22LrmrVHkWrPu-48">
          <mxGeometry relative="1" as="geometry" />
        </mxCell>
        <mxCell id="ak59orL22LrmrVHkWrPu-53" value="Deben" style="rhombus;whiteSpace=wrap;html=1;" vertex="1" parent="1">
          <mxGeometry x="730" y="550" width="80" height="80" as="geometry" />
        </mxCell>
        <mxCell id="ak59orL22LrmrVHkWrPu-54" value="Asistencia" style="swimlane;fontStyle=0;childLayout=stackLayout;horizontal=1;startSize=30;horizontalStack=0;resizeParent=1;resizeParentMax=0;resizeLast=0;collapsible=1;marginBottom=0;whiteSpace=wrap;html=1;" vertex="1" parent="1">
          <mxGeometry x="480" y="-80" width="140" height="120" as="geometry" />
        </mxCell>
        <mxCell id="ak59orL22LrmrVHkWrPu-55" value="Fecha" style="text;strokeColor=none;fillColor=none;align=left;verticalAlign=middle;spacingLeft=4;spacingRight=4;overflow=hidden;points=[[0,0.5],[1,0.5]];portConstraint=eastwest;rotatable=0;whiteSpace=wrap;html=1;" vertex="1" parent="ak59orL22LrmrVHkWrPu-54">
          <mxGeometry y="30" width="140" height="30" as="geometry" />
        </mxCell>
        <mxCell id="ak59orL22LrmrVHkWrPu-56" value="Hora" style="text;strokeColor=none;fillColor=none;align=left;verticalAlign=middle;spacingLeft=4;spacingRight=4;overflow=hidden;points=[[0,0.5],[1,0.5]];portConstraint=eastwest;rotatable=0;whiteSpace=wrap;html=1;" vertex="1" parent="ak59orL22LrmrVHkWrPu-54">
          <mxGeometry y="60" width="140" height="30" as="geometry" />
        </mxCell>
        <mxCell id="ak59orL22LrmrVHkWrPu-57" value="Registro" style="text;strokeColor=none;fillColor=none;align=left;verticalAlign=middle;spacingLeft=4;spacingRight=4;overflow=hidden;points=[[0,0.5],[1,0.5]];portConstraint=eastwest;rotatable=0;whiteSpace=wrap;html=1;" vertex="1" parent="ak59orL22LrmrVHkWrPu-54">
          <mxGeometry y="90" width="140" height="30" as="geometry" />
        </mxCell>
        <mxCell id="ak59orL22LrmrVHkWrPu-59" value="" style="edgeStyle=orthogonalEdgeStyle;rounded=0;orthogonalLoop=1;jettySize=auto;html=1;entryX=0;entryY=0.5;entryDx=0;entryDy=0;" edge="1" parent="1" source="ak59orL22LrmrVHkWrPu-24" target="ak59orL22LrmrVHkWrPu-58">
          <mxGeometry relative="1" as="geometry">
            <mxPoint x="160" y="940" as="sourcePoint" />
            <mxPoint x="300" y="820" as="targetPoint" />
            <Array as="points" />
          </mxGeometry>
        </mxCell>
        <mxCell id="ak59orL22LrmrVHkWrPu-60" style="edgeStyle=orthogonalEdgeStyle;rounded=0;orthogonalLoop=1;jettySize=auto;html=1;" edge="1" parent="1" source="ak59orL22LrmrVHkWrPu-58" target="ak59orL22LrmrVHkWrPu-61">
          <mxGeometry relative="1" as="geometry">
            <mxPoint x="420" y="790" as="targetPoint" />
          </mxGeometry>
        </mxCell>
        <mxCell id="ak59orL22LrmrVHkWrPu-58" value="Evaluacion" style="rounded=0;whiteSpace=wrap;html=1;" vertex="1" parent="1">
          <mxGeometry x="170" y="800" width="120" height="60" as="geometry" />
        </mxCell>
        <mxCell id="ak59orL22LrmrVHkWrPu-62" style="edgeStyle=orthogonalEdgeStyle;rounded=0;orthogonalLoop=1;jettySize=auto;html=1;entryX=0.5;entryY=1;entryDx=0;entryDy=0;" edge="1" parent="1" source="ak59orL22LrmrVHkWrPu-61" target="ak59orL22LrmrVHkWrPu-26">
          <mxGeometry relative="1" as="geometry" />
        </mxCell>
        <mxCell id="ak59orL22LrmrVHkWrPu-61" value="Guarda" style="rhombus;whiteSpace=wrap;html=1;" vertex="1" parent="1">
          <mxGeometry x="400" y="790" width="80" height="80" as="geometry" />
        </mxCell>
        <mxCell id="ak59orL22LrmrVHkWrPu-65" style="edgeStyle=orthogonalEdgeStyle;rounded=0;orthogonalLoop=1;jettySize=auto;html=1;entryX=0.531;entryY=1.027;entryDx=0;entryDy=0;entryPerimeter=0;" edge="1" parent="1" source="ak59orL22LrmrVHkWrPu-13" target="ak59orL22LrmrVHkWrPu-12">
          <mxGeometry relative="1" as="geometry" />
        </mxCell>
        <mxCell id="ak59orL22LrmrVHkWrPu-70" style="edgeStyle=orthogonalEdgeStyle;rounded=0;orthogonalLoop=1;jettySize=auto;html=1;entryX=0.5;entryY=0;entryDx=0;entryDy=0;" edge="1" parent="1" source="ak59orL22LrmrVHkWrPu-56" target="ak59orL22LrmrVHkWrPu-72">
          <mxGeometry relative="1" as="geometry" />
        </mxCell>
        <mxCell id="ak59orL22LrmrVHkWrPu-71" style="edgeStyle=orthogonalEdgeStyle;rounded=0;orthogonalLoop=1;jettySize=auto;html=1;entryX=0.5;entryY=0;entryDx=0;entryDy=0;" edge="1" parent="1" source="ak59orL22LrmrVHkWrPu-56" target="ak59orL22LrmrVHkWrPu-5">
          <mxGeometry relative="1" as="geometry" />
        </mxCell>
        <mxCell id="ak59orL22LrmrVHkWrPu-72" value="Toma asistencia" style="swimlane;fontStyle=0;childLayout=stackLayout;horizontal=1;startSize=30;horizontalStack=0;resizeParent=1;resizeParentMax=0;resizeLast=0;collapsible=1;marginBottom=0;whiteSpace=wrap;html=1;" vertex="1" parent="1">
          <mxGeometry x="425" y="100" width="140" height="90" as="geometry" />
        </mxCell>
        <mxCell id="ak59orL22LrmrVHkWrPu-73" value="ID" style="text;strokeColor=none;fillColor=none;align=left;verticalAlign=middle;spacingLeft=4;spacingRight=4;overflow=hidden;points=[[0,0.5],[1,0.5]];portConstraint=eastwest;rotatable=0;whiteSpace=wrap;html=1;" vertex="1" parent="ak59orL22LrmrVHkWrPu-72">
          <mxGeometry y="30" width="140" height="30" as="geometry" />
        </mxCell>
        <mxCell id="ak59orL22LrmrVHkWrPu-74" value="Fecha" style="text;strokeColor=none;fillColor=none;align=left;verticalAlign=middle;spacingLeft=4;spacingRight=4;overflow=hidden;points=[[0,0.5],[1,0.5]];portConstraint=eastwest;rotatable=0;whiteSpace=wrap;html=1;" vertex="1" parent="ak59orL22LrmrVHkWrPu-72">
          <mxGeometry y="60" width="140" height="30" as="geometry" />
        </mxCell>
        <mxCell id="ak59orL22LrmrVHkWrPu-77" style="edgeStyle=orthogonalEdgeStyle;rounded=0;orthogonalLoop=1;jettySize=auto;html=1;entryX=1.011;entryY=0.163;entryDx=0;entryDy=0;entryPerimeter=0;" edge="1" parent="1" source="ak59orL22LrmrVHkWrPu-72" target="ak59orL22LrmrVHkWrPu-1">
          <mxGeometry relative="1" as="geometry">
            <Array as="points">
              <mxPoint x="495" y="310" />
            </Array>
          </mxGeometry>
        </mxCell>
      </root>
    </mxGraphModel>
  </diagram>
</mxfile>
